<?xml version="1.0" encoding="utf-8"?>
<!-- Generator: Adobe Illustrator 24.1.3, SVG Export Plug-In . SVG Version: 6.00 Build 0)  -->
<svg version="1.1" id="Layer_1" xmlns="http://www.w3.org/2000/svg" xmlns:xlink="http://www.w3.org/1999/xlink" x="0px" y="0px"
	 viewBox="0 0 123 37" style="enable-background:new 0 0 123 37;" xml:space="preserve">
<style type="text/css">
	.st0{fill:#EF3A49;}
	.st1{fill:#7F3F98;}
</style>
<g>
	<path d="M21.81,6.88c-4.82,0-8.72,3.85-8.72,8.6v2.15c0,2.38-1.95,4.3-4.36,4.3s-4.36-1.93-4.36-4.3v-8.6
		c0-1.19-0.98-2.15-2.18-2.15S0,7.85,0,9.03v8.6c0,4.75,3.91,8.6,8.72,8.6s8.72-3.85,8.72-8.6v-2.15c0-2.38,1.95-4.3,4.36-4.3
		s4.36,1.93,4.36,4.3v8.6c0,1.19,0.98,2.15,2.18,2.15c1.2,0,2.18-0.96,2.18-2.15v-8.6C30.53,10.74,26.63,6.88,21.81,6.88z"/>
	<g>
		<path d="M37.07,6.88c-1.2,0-2.18,0.96-2.18,2.15v6.45v8.6c0,1.19,0.98,2.15,2.18,2.15c1.2,0,2.18-0.96,2.18-2.15v-8.6V9.03
			C39.26,7.85,38.28,6.88,37.07,6.88z"/>
		<ellipse class="st0" cx="37.07" cy="2.15" rx="2.18" ry="2.15"/>
	</g>
	<path d="M73.06,6.88c-5.42,0-9.81,4.33-9.81,9.68c0,5.35,4.39,9.68,9.81,9.68s9.81-4.33,9.81-9.68
		C82.87,11.22,78.48,6.88,73.06,6.88z M73.06,21.94c-3.01,0-5.45-2.41-5.45-5.38s2.44-5.38,5.45-5.38s5.45,2.41,5.45,5.38
		S76.07,21.94,73.06,21.94z"/>
	<path d="M95.52,14.46H91.6c-1.2,0-2.18-0.26-2.18-1.68c0-1.16,0.98-1.59,2.18-1.59h6.98c1.2,0,2.18-1.04,2.18-2.2
		s-0.98-2.1-2.18-2.1H91.6c-6.54,0-6.54,5.33-6.54,5.89c0,0.56,0,5.89,6.54,5.89h3.93c1.2,0,2.18,0.26,2.18,1.68
		c0,1.59-0.98,1.68-2.18,1.68h-6.98c-1.2,0-2.18,0.94-2.18,2.1s0.98,2.1,2.18,2.1h6.98c6.54,0,6.54-5.33,6.54-5.89
		C102.06,19.79,102.06,14.46,95.52,14.46z"/>
	<path d="M113.84,21.94h-1.31c-1.2,0-2.18-0.96-2.18-2.15v-8.6h3.41v-0.01c0.03,0,0.05,0.01,0.07,0.01c1.2,0,2.18-0.96,2.18-2.15
		s-0.98-2.15-2.18-2.15c-0.03,0-0.05,0.01-0.07,0.01V6.88h-3.41v-4.3c0-1.19-0.98-2.15-2.18-2.15s-2.18,0.96-2.18,2.15v17.21
		c0,3.56,2.93,6.45,6.54,6.45h1.31c1.2,0,2.18-0.96,2.18-2.15S115.04,21.94,113.84,21.94z"/>
	<g>
		<path d="M52.34,6.88H45.8c-1.2,0-2.18,0.96-2.18,2.15v6.45v19.36c0,1.19,0.98,2.15,2.18,2.15s2.18-0.96,2.18-2.15V15.49v-4.3h4.36
			c2.68,0,4.36,2.41,4.36,5.38s-1.69,5.38-4.36,5.38c-1.2,0-2.18,0.96-2.18,2.15s0.98,2.15,2.18,2.15c4.82,0,8.72-4.33,8.72-9.68
			C61.06,11.22,57.16,6.88,52.34,6.88z"/>
	</g>
	<ellipse class="st1" cx="120.82" cy="24.09" rx="2.18" ry="2.15"/>
</g>
</svg>
